<?xml version="1.0" encoding="UTF-8" standalone="no"?>
<svg
   xmlns:dc="http://purl.org/dc/elements/1.1/"
   xmlns:cc="http://creativecommons.org/ns#"
   xmlns:rdf="http://www.w3.org/1999/02/22-rdf-syntax-ns#"
   xmlns:svg="http://www.w3.org/2000/svg"
   xmlns="http://www.w3.org/2000/svg"
   xmlns:sodipodi="http://sodipodi.sourceforge.net/DTD/sodipodi-0.dtd"
   xmlns:inkscape="http://www.inkscape.org/namespaces/inkscape"
   width="192"
   height="192"
   fill="#000000"
   viewBox="0 0 256 256"
   version="1.1"
   id="svg1249"
   sodipodi:docname="bean-book-open.svg"
   inkscape:version="1.0.2-2 (e86c870879, 2021-01-15)">
  <metadata
     id="metadata1255">
    <rdf:RDF>
      <cc:Work
         rdf:about="">
        <dc:format>image/svg+xml</dc:format>
        <dc:type
           rdf:resource="http://purl.org/dc/dcmitype/StillImage" />
        <dc:title></dc:title>
      </cc:Work>
    </rdf:RDF>
  </metadata>
  <defs
     id="defs1253" />
  <sodipodi:namedview
     pagecolor="#ffffff"
     bordercolor="#666666"
     borderopacity="1"
     objecttolerance="10"
     gridtolerance="10"
     guidetolerance="10"
     inkscape:pageopacity="0"
     inkscape:pageshadow="2"
     inkscape:window-width="1920"
     inkscape:window-height="1017"
     id="namedview1251"
     showgrid="false"
     inkscape:zoom="4.4270833"
     inkscape:cx="91.708235"
     inkscape:cy="96"
     inkscape:window-x="-8"
     inkscape:window-y="-8"
     inkscape:window-maximized="1"
     inkscape:current-layer="svg1249" />
  <rect
     width="256"
     height="256"
     fill="none"
     id="rect1243" />
  <path
     d="M128,88a32,32,0,0,1,32-32h64a8,8,0,0,1,8,8V192a8,8,0,0,1-8,8H160a32,32,0,0,0-32,32"
     fill="none"
     stroke="#000000"
     stroke-linecap="round"
     stroke-linejoin="round"
     stroke-width="16"
     id="path1245"
     style="stroke:#808080;stroke-opacity:1" />
  <path
     d="M24,192a8,8,0,0,0,8,8H96a32,32,0,0,1,32,32V88A32,32,0,0,0,96,56H32a8,8,0,0,0-8,8Z"
     fill="none"
     stroke="#000000"
     stroke-linecap="round"
     stroke-linejoin="round"
     stroke-width="16"
     id="path1247"
     style="stroke:#808080;stroke-opacity:1" />
  <path
     style="color:#000000;font-style:normal;font-variant:normal;font-weight:normal;font-stretch:normal;font-size:medium;line-height:normal;font-family:sans-serif;font-variant-ligatures:normal;font-variant-position:normal;font-variant-caps:normal;font-variant-numeric:normal;font-variant-alternates:normal;font-variant-east-asian:normal;font-feature-settings:normal;font-variation-settings:normal;text-indent:0;text-align:start;text-decoration:none;text-decoration-line:none;text-decoration-style:solid;text-decoration-color:#000000;letter-spacing:normal;word-spacing:normal;text-transform:none;writing-mode:lr-tb;direction:ltr;text-orientation:mixed;dominant-baseline:auto;baseline-shift:baseline;text-anchor:start;white-space:normal;shape-padding:0;shape-margin:0;inline-size:0;clip-rule:nonzero;display:inline;overflow:visible;visibility:visible;opacity:0.999;isolation:auto;mix-blend-mode:normal;color-interpolation:sRGB;color-interpolation-filters:linearRGB;solid-color:#000000;solid-opacity:1;vector-effect:none;fill:#ffffff;fill-opacity:1;fill-rule:nonzero;stroke:none;stroke-width:16.3711;stroke-linecap:butt;stroke-linejoin:miter;stroke-miterlimit:4;stroke-dasharray:none;stroke-dashoffset:0;stroke-opacity:1;color-rendering:auto;image-rendering:auto;shape-rendering:auto;text-rendering:auto;enable-background:accumulate;stop-color:#000000"
     d="m 211.43634,144.04553 c 2.98972,11.09407 -10.2794,18.40407 -36.89667,21.92865 l 15.66118,44.8753 c -6.7378,3.09155 -9.92244,4.3619 -17.8115,6.10136 l -19.12471,-49.24236 c -2.88908,-0.12259 -9.44427,-0.6669 -11.94393,0.0306 -9.57788,2.67259 -28.56944,-2.25232 -40.55451,-10.25666 -15.027968,-10.03656 3.27998,-15.27252 -23.334648,-9.65438 -31.04711,6.55381 -54.40415,-8.07148 -54.40415,-44.14017 0,-33.056927 54.81892,-71.025735 103.430998,-68.880116 68.23588,3.011764 108.02073,53.331564 107.71676,77.915416 -0.30397,24.58384 -9.512,29.67215 -22.73882,31.32236 z"
     id="path231"
     sodipodi:nodetypes="cccccssssszc" />
  <path
     style="color:#000000;font-style:normal;font-variant:normal;font-weight:normal;font-stretch:normal;font-size:medium;line-height:normal;font-family:sans-serif;font-variant-ligatures:normal;font-variant-position:normal;font-variant-caps:normal;font-variant-numeric:normal;font-variant-alternates:normal;font-variant-east-asian:normal;font-feature-settings:normal;font-variation-settings:normal;text-indent:0;text-align:start;text-decoration:none;text-decoration-line:none;text-decoration-style:solid;text-decoration-color:#000000;letter-spacing:normal;word-spacing:normal;text-transform:none;writing-mode:lr-tb;direction:ltr;text-orientation:mixed;dominant-baseline:auto;baseline-shift:baseline;text-anchor:start;white-space:normal;shape-padding:0;shape-margin:0;inline-size:0;clip-rule:nonzero;overflow:visible;visibility:visible;opacity:0.999;isolation:auto;mix-blend-mode:normal;color-interpolation:sRGB;color-interpolation-filters:linearRGB;solid-color:#000000;solid-opacity:1;vector-effect:none;fill:none;fill-opacity:1;fill-rule:nonzero;stroke:#000000;stroke-width:16.3711;stroke-linecap:butt;stroke-linejoin:miter;stroke-miterlimit:4;stroke-dasharray:none;stroke-dashoffset:0;stroke-opacity:1;color-rendering:auto;image-rendering:auto;shape-rendering:auto;text-rendering:auto;enable-background:accumulate;stop-color:#000000"
     d="m 211.43634,144.04553 c 2.98972,11.09407 -10.2794,18.40407 -36.89667,21.92865 l 15.66118,44.8753 c -6.7378,3.09155 -9.92244,4.3619 -17.8115,6.10136 l -19.12471,-49.24236 c -2.88908,-0.12259 -9.44427,-0.6669 -11.94393,0.0306 -9.57788,2.67259 -28.56944,-2.25232 -40.55451,-10.25666 -15.027968,-10.03656 3.27998,-15.27252 -23.334648,-9.65438 -31.04711,6.55381 -54.40415,-8.07148 -54.40415,-44.14017 0,-33.056927 54.81892,-71.025735 103.430998,-68.880116 68.23588,3.011764 108.02073,53.331564 107.71676,77.915416 -0.30397,24.58384 -9.512,29.67215 -22.73882,31.32236 z"
     id="path1277"
     sodipodi:nodetypes="cccccssssszc" />
</svg>
